HIERARCHY
ROOT Hips
{
	OFFSET	0.00	0.00	0.00
	CHANNELS 6 Xposition Yposition Zposition Zrotation Xrotation Yrotation
	JOINT LeftUpLeg
	{
		OFFSET	 0.126116	-0.014019	-0.065224
		CHANNELS 3 Zrotation Xrotation Yrotation
		JOINT LeftLeg
		{
			OFFSET	 0.000000	 0.000000	 0.569914
			CHANNELS 3 Zrotation Xrotation Yrotation
			JOINT LeftFoot
			{
				OFFSET	 0.000000	 0.000000	 0.544423
				CHANNELS 3 Zrotation Xrotation Yrotation
				JOINT LeftToeBase
				{
					OFFSET	 0.000000	 0.000000	 0.207117
					CHANNELS 3 Zrotation Xrotation Yrotation
					End Site
					{
						OFFSET	 0.000000	 0.000000	 0.207117
					}
				}
			}
		}
	}
	JOINT RightUpLeg
	{
		OFFSET	-0.124023	-0.008373	-0.065224
		CHANNELS 3 Zrotation Xrotation Yrotation
		JOINT RightLeg
		{
			OFFSET	 0.000000	 0.000000	 0.570047
			CHANNELS 3 Zrotation Xrotation Yrotation
			JOINT RightFoot
			{
				OFFSET	 0.000000	 0.000000	 0.544354
				CHANNELS 3 Zrotation Xrotation Yrotation
				JOINT RightToeBase
				{
					OFFSET	 0.000000	 0.000000	 0.207540
					CHANNELS 3 Zrotation Xrotation Yrotation
					End Site
					{
						OFFSET	 0.000000	 0.000000	 0.207540
					}
				}
			}
		}
	}
	JOINT Spine
	{
		OFFSET	 0.000184	-0.007763	 0.117403
		CHANNELS 3 Zrotation Xrotation Yrotation
		JOINT Spine1
		{
			OFFSET	 0.000000	 0.000000	 0.137269
			CHANNELS 3 Zrotation Xrotation Yrotation
			JOINT Spine2
			{
				OFFSET	 0.000000	 0.000000	 0.156879
				CHANNELS 3 Zrotation Xrotation Yrotation
				JOINT LeftShoulder
				{
					OFFSET	 0.080501	-0.002496	 0.160144
					CHANNELS 3 Zrotation Xrotation Yrotation
					JOINT LeftArm
					{
						OFFSET	 0.000000	 0.000000	 0.164363
						CHANNELS 3 Zrotation Xrotation Yrotation
						JOINT LeftForeArm
						{
							OFFSET	 0.000000	 0.000000	 0.364576
							CHANNELS 3 Zrotation Xrotation Yrotation
							JOINT LeftHand
							{
								OFFSET	 0.000000	 0.000000	 0.360812
								CHANNELS 3 Zrotation Xrotation Yrotation
								JOINT LeftHandIndex1
								{
									OFFSET	 0.000000	 0.000000	 0.086006
									CHANNELS 3 Zrotation Xrotation Yrotation
									JOINT LeftHandIndex2
									{
										OFFSET	 0.000000	 0.000000	 0.047236
										CHANNELS 3 Zrotation Xrotation Yrotation
										JOINT LeftHandIndex3
										{
											OFFSET	-0.004284	-0.000551	 0.038166
											CHANNELS 3 Zrotation Xrotation Yrotation
											End Site
											{
												OFFSET	-0.004284	-0.000551	 0.038166
											}
										}
									}
								}
							}
						}
					}
				}
				JOINT Neck
				{
					OFFSET	 0.000000	 0.000000	 0.176489
					CHANNELS 3 Zrotation Xrotation Yrotation
					JOINT Head
					{
						OFFSET	 0.000000	-0.001747	 0.077940
						CHANNELS 3 Zrotation Xrotation Yrotation
						End Site
						{
							OFFSET	 0.000000	-0.001747	 0.077940
						}
					}
				}
				JOINT RightShoulder
				{
					OFFSET	-0.080363	 0.000306	 0.159706
					CHANNELS 3 Zrotation Xrotation Yrotation
					JOINT RightArm
					{
						OFFSET	 0.000000	 0.000000	 0.164196
						CHANNELS 3 Zrotation Xrotation Yrotation
						JOINT RightForeArm
						{
							OFFSET	 0.000000	 0.000000	 0.365611
							CHANNELS 3 Zrotation Xrotation Yrotation
							JOINT RightHand
							{
								OFFSET	 0.000000	 0.000000	 0.360648
								CHANNELS 3 Zrotation Xrotation Yrotation
								JOINT RightHandIndex1
								{
									OFFSET	 0.000000	 0.000000	 0.069977
									CHANNELS 3 Zrotation Xrotation Yrotation
									JOINT RightHandIndex2
									{
										OFFSET	 0.000000	 0.000000	 0.052305
										CHANNELS 3 Zrotation Xrotation Yrotation
										JOINT RightHandIndex3
										{
											OFFSET	 0.009002	-0.000782	 0.042196
											CHANNELS 3 Zrotation Xrotation Yrotation
											End Site
											{
												OFFSET	 0.009002	-0.000782	 0.042196
											}
										}
									}
								}
							}
						}
					}
				}
			}
		}
	}
}
MOTION
Frames:    12
Frame Time: 0.03333334
-0.672692	-7.106162	 0.805293	-14.258730	 8.267559	 1.724473	 4.540068	-21.978210	 173.946000	-1.633318	-40.884540	-0.220832	 0.049998	 85.060970	-0.537063	-2.385788	 28.462720	-0.000214	-2.513207	-22.833700	-178.747200	-0.115532	-41.853820	 0.012401	-0.230678	 86.026750	 0.485705	 2.407678	 17.346150	-0.225307	 7.619132	 7.707138	-0.809180	 13.478940	 5.003982	-2.647314	 16.352600	 3.076104	 0.647775	-119.929400	 89.490630	-149.360000	 60.942860	 61.027440	-83.389750	-4.737898	-4.497439	-21.479900	 4.700526	-22.578800	-5.790409	-3.812334	 37.924440	-2.927599	-2.450526	 36.184240	 0.754587	-1.378229	 35.397820	-2.634230	 0.462968	 2.914462	-0.644124	 4.817769	 6.719257	-1.022348	 94.539790	 86.864310	 171.821600	-59.285510	 72.232890	 76.437720	-3.183990	-14.095690	 26.514980	-22.069440	-23.351800	 10.447760	 6.437017	 35.671460	-0.771858	 2.830251	 35.756010	-7.813440	-2.350882	 35.473990	 5.254307
-0.671069	-7.103004	 0.809014	-14.293710	 8.051337	 1.776855	 4.513956	-22.276360	 174.132100	-1.722520	-40.457970	-0.262130	 0.033031	 84.779590	-0.571490	-2.385681	 28.486770	-0.000734	-2.458185	-23.159780	-178.765900	-0.094719	-41.245820	 0.038440	-0.387242	 85.682080	 0.676911	 2.407679	 17.637550	-0.219622	 6.594460	 7.461154	-0.867980	 13.278600	 4.446147	-2.512909	 16.161870	 2.499896	 0.721882	-115.638100	 89.393810	-153.571100	 55.905950	 59.446760	-78.001050	-4.327623	-3.997968	-21.656300	 3.745662	-23.673330	-5.923453	-3.812334	 37.924440	-2.927599	-2.450526	 36.184240	 0.754587	-1.378229	 35.397820	-2.634230	 0.449958	 2.565764	-0.604049	 4.726062	 6.349799	-0.983335	 94.718990	 86.897070	 171.564500	-53.399350	 69.900280	 71.819320	-2.546068	-12.635850	 26.648190	-19.749190	-24.423210	 10.621430	 6.437017	 35.671460	-0.771858	 2.830251	 35.756010	-7.813440	-2.350882	 35.473990	 5.254307
-0.669928	-7.101615	 0.806881	-14.338150	 8.033607	 1.828367	 4.512747	-22.826810	 174.067800	-1.781459	-41.230930	-0.316889	 0.192889	 85.017090	-0.780119	-2.385225	 28.590100	-0.002966	-2.426925	-23.568170	-178.744700	-0.064025	-41.887750	 0.095229	-0.669931	 85.880730	 1.021159	 2.407646	 17.954180	-0.213423	 5.241846	 7.455487	-0.929287	 13.101730	 4.112134	-2.505231	 15.952730	 2.072064	 0.772279	-115.133600	 89.370990	-154.026700	 55.433700	 58.511780	-77.605460	-5.116334	-3.414833	-22.907200	 2.400535	-25.194810	-6.128912	-3.812334	 37.924440	-2.927599	-2.450526	 36.184240	 0.754587	-1.378229	 35.397820	-2.634230	 0.429788	 2.352665	-0.572344	 4.660895	 6.264990	-1.045434	 94.735810	 86.883850	 171.515500	-53.051160	 69.177320	 71.856670	-1.839764	-12.261250	 27.918390	-18.767070	-25.913510	 10.888050	 6.437017	 35.671460	-0.771858	 2.830251	 35.756010	-7.813440	-2.350882	 35.473990	 5.254307
-0.668543	-7.099656	 0.804210	-14.420960	 8.067311	 1.844546	 4.576723	-23.457880	 174.028600	-1.853468	-42.137020	-0.343122	 0.413167	 85.280170	-1.011050	-2.385031	 28.632170	-0.003880	-2.408201	-24.126670	-178.682500	-0.053213	-42.696080	 0.137950	-0.975169	 86.096600	 1.364782	 2.407576	 18.254230	-0.207539	 3.733622	 7.542479	-0.966289	 12.895500	 3.810609	-2.483458	 15.693670	 1.676512	 0.813982	-114.390200	 89.334120	-154.692200	 54.726430	 57.750390	-77.214610	-5.655919	-3.007594	-24.354590	 1.655810	-26.889840	-6.383286	-3.812334	 37.924440	-2.927599	-2.450526	 36.184240	 0.754587	-1.378229	 35.397820	-2.634230	 0.402314	 2.086360	-0.557579	 4.565158	 6.208436	-1.021105	 94.768670	 86.868680	 171.435800	-52.477560	 68.392590	 71.757080	-1.054150	-11.877990	 29.451660	-17.727840	-27.591310	 11.204830	 6.437017	 35.671460	-0.771858	 2.830251	 35.756010	-7.813440	-2.350882	 35.473990	 5.254307
-0.666875	-7.096831	 0.800751	-14.524220	 8.141272	 1.855522	 4.691717	-24.217280	 174.005400	-1.956674	-43.255390	-0.362470	 0.654095	 85.595840	-1.248511	-2.384712	 28.700880	-0.005373	-2.384814	-24.942560	-178.609500	-0.085742	-43.740920	 0.159684	-1.334451	 86.352780	 1.732432	 2.407429	 18.667310	-0.199428	 2.020473	 7.718597	-1.017906	 12.640760	 3.501526	-2.457739	 15.394140	 1.276514	 0.852181	-113.488200	 89.289210	-155.510700	 53.806300	 57.073940	-76.896730	-6.263479	-2.623542	-26.142860	 1.094904	-28.781750	-6.703333	-3.812334	 37.924440	-2.927599	-2.450526	 36.184240	 0.754587	-1.378229	 35.397820	-2.634230	 0.380575	 1.785092	-0.544408	 4.465130	 6.126858	-0.920904	 94.811130	 86.840000	 171.318200	-51.753330	 67.529650	 71.749960	-0.122611	-11.444700	 31.253090	-16.578500	-29.444130	 11.623630	 6.437017	 35.671460	-0.771858	 2.830251	 35.756010	-7.813440	-2.350882	 35.473990	 5.254307
-0.664809	-7.092673	 0.796315	-14.654450	 8.295557	 1.816294	 4.749278	-25.279430	 174.002900	-2.090436	-44.657520	-0.438603	 0.751011	 85.987410	-1.389564	-2.384128	 28.830630	-0.008188	-2.320552	-26.115080	-178.516800	-0.120710	-45.092130	 0.211017	-1.559847	 86.669330	 1.985260	 2.407075	 19.307570	-0.186810	 0.084337	 7.998032	-1.036874	 12.333370	 3.148784	-2.408019	 15.057160	 0.822286	 0.893151	-112.664100	 89.237410	-156.225700	 52.690430	 56.395070	-76.628140	-7.462349	-1.956885	-28.415450	 0.010414	-30.876080	-7.108325	-3.812334	 37.924440	-2.927599	-2.450526	 36.184240	 0.754587	-1.378229	 35.397820	-2.634230	 0.379844	 1.384616	-0.554506	 4.371130	 6.007143	-0.755404	 94.856410	 86.786550	 171.154600	-50.889720	 66.602340	 71.977590	 1.020608	-10.926560	 33.321830	-15.302680	-31.491700	 12.145650	 6.437017	 35.671460	-0.771858	 2.830251	 35.756010	-7.813440	-2.350882	 35.473990	 5.254307
-0.661273	-7.084999	 0.789055	-14.890830	 8.664019	 1.685136	 4.812867	-27.229750	 174.104400	-2.396678	-46.998890	-0.642667	 1.171657	 86.640370	-1.952781	-2.382958	 29.081350	-0.013635	-2.213807	-28.122710	-178.438000	-0.141628	-47.402660	 0.319839	-2.265937	 87.196210	 2.756308	 2.406282	 20.253980	-0.168061	-2.697291	 8.636569	-1.052103	 11.882460	 2.612297	-2.307639	 14.565980	 0.117671	 0.953399	-112.075700	 89.160930	-156.589100	 50.943430	 55.540540	-76.257430	-9.282038	-0.834610	-32.053520	-1.591857	-33.849530	-7.781881	-3.812334	 37.924440	-2.927599	-2.450526	 36.184240	 0.754587	-1.378229	 35.397820	-2.634230	 0.429048	 0.667859	-0.617107	 4.248514	 5.744683	-0.358733	 94.900830	 86.659070	 170.867600	-49.346210	 65.383170	 72.282300	 2.831929	-10.066510	 36.356670	-13.424340	-34.406620	 12.989880	 6.437017	 35.671460	-0.771858	 2.830251	 35.756010	-7.813440	-2.350882	 35.473990	 5.254307
-0.659238	-7.079729	 0.784382	-15.053750	 8.893972	 1.675359	 4.801471	-28.540740	 174.053200	-2.604832	-48.520160	-0.824034	 1.173656	 87.068090	-2.072535	-2.382162	 29.247870	-0.017277	-2.114774	-29.427800	-178.390700	-0.079139	-48.924240	 0.467063	-2.448347	 87.541700	 3.036787	 2.405702	 20.761600	-0.157941	-4.270947	 9.124387	-1.106897	 11.623370	 2.262187	-2.284261	 14.270220	-0.342871	 0.991224	-112.019400	 89.119060	-156.488500	 49.888600	 55.104620	-76.039470	-10.265860	-0.133439	-34.186130	-2.456950	-35.533190	-8.215492	-3.812334	 37.924440	-2.927599	-2.450526	 36.184240	 0.754587	-1.378229	 35.397820	-2.634230	 0.475116	 0.205888	-0.673339	 4.174958	 5.484578	-0.082180	 94.882480	 86.557640	 170.729500	-48.309430	 64.681460	 72.333560	 3.847487	-9.499770	 38.099040	-12.297990	-36.024040	 13.544620	 6.437017	 35.671460	-0.771858	 2.830251	 35.756010	-7.813440	-2.350882	 35.473990	 5.254307
-0.656248	-7.070838	 0.776574	-15.318480	 9.262865	 1.734254	 4.773650	-30.755080	 173.850000	-2.918545	-51.075110	-1.116523	 2.325641	 87.793540	-3.398555	-2.380733	 29.541440	-0.023701	-2.072016	-31.607680	-178.356800	 0.065474	-51.463960	 0.668330	-4.152496	 88.123930	 4.860110	 2.404578	 21.585370	-0.141446	-6.626698	 9.953569	-1.206052	 11.222430	 1.731731	-2.313245	 13.798360	-1.094118	 1.048546	-112.240500	 89.066230	-156.019900	 48.198220	 54.626080	-75.643610	-11.999040	 1.137662	-37.315540	-3.981433	-37.991120	-8.941827	-3.812334	 37.924440	-2.927599	-2.450526	 36.184240	 0.754587	-1.378229	 35.397820	-2.634230	 0.556114	-0.459344	-0.776205	 4.063765	 4.928676	 0.352700	 94.798260	 86.383880	 170.584400	-46.511420	 63.613680	 72.112950	 5.310079	-8.531676	 40.704910	-10.521900	-38.394740	 14.461710	 6.437017	 35.671460	-0.771858	 2.830251	 35.756010	-7.813440	-2.350882	 35.473990	 5.254307
-0.652867	-7.060489	 0.767274	-15.591560	 9.762675	 1.818968	 4.656035	-33.441910	 173.596800	-3.450269	-54.117650	-1.655752	 5.124071	 88.629970	-6.498870	-2.379411	 29.805930	-0.029524	-2.016491	-34.372540	-178.341700	 0.161592	-54.366580	 0.850553	-8.045417	 88.825300	 8.829690	 2.403158	 22.424120	-0.124532	-9.110067	 10.841070	-1.323390	 10.771740	 1.159008	-2.364596	 13.280740	-1.937742	 1.106477	-112.693900	 89.024020	-155.316300	 46.572720	 54.398870	-75.080510	-14.057940	 2.775720	-40.351640	-5.920864	-40.501040	-9.801835	-3.812334	 37.924440	-2.927599	-2.450526	 36.184240	 0.754587	-1.378229	 35.397820	-2.634230	 0.665896	-1.214033	-0.917000	 3.958871	 4.279553	 0.881917	 94.673850	 86.192180	 170.482600	-44.490530	 62.642850	 71.519580	 6.778157	-7.369744	 43.245860	-8.615238	-40.811870	 15.516880	 6.437017	 35.671460	-0.771858	 2.830251	 35.756010	-7.813440	-2.350882	 35.473990	 5.254307
-0.649240	-7.049630	 0.756683	-15.885880	 10.475940	 1.917319	 4.418702	-36.522730	 173.281300	-4.262743	-57.407230	-2.524935	 14.264940	 89.519080	-16.053280	-2.377937	 30.091910	-0.035830	-1.964196	-37.511170	-178.355800	 0.330462	-57.498990	 1.098764	-23.595590	 89.622570	 24.464170	 2.401778	 23.116990	-0.110472	-11.637240	 11.678310	-1.433585	 10.273410	 0.569343	-2.403321	 12.706110	-2.791466	 1.152610	-113.315800	 88.991670	-154.449500	 45.227600	 54.526450	-74.461780	-16.248780	 4.608705	-43.034290	-8.020240	-42.921860	-10.783150	-3.812334	 37.924440	-2.927599	-2.450526	 36.184240	 0.754587	-1.378229	 35.397820	-2.634230	 0.788909	-1.982311	-1.098125	 3.838718	 3.658718	 1.484344	 94.531000	 86.000950	 170.419700	-42.839120	 62.272320	 70.801040	 8.335938	-6.109748	 45.401120	-6.749923	-43.133060	 16.728180	 6.437017	 35.671460	-0.771858	 2.830251	 35.756010	-7.813440	-2.350882	 35.473990	 5.254307
-0.645619	-7.039226	 0.745041	-16.295830	 11.266710	 2.022242	 4.220981	-39.643550	 172.985000	-5.234634	-60.727630	-3.530518	 162.797600	 89.550630	-164.956400	-2.375897	 30.475560	-0.044343	-1.833179	-40.736200	-178.274200	 0.524122	-60.715040	 1.425552	-162.546500	 89.507030	 163.517200	 2.400270	 23.783840	-0.096848	-14.074170	 12.462710	-1.443554	 9.772113	 0.028678	-2.427663	 12.058420	-3.637388	 1.182101	-114.045700	 88.968080	-153.485500	 44.175370	 54.929790	-73.319080	-18.126030	 6.396812	-45.164840	-9.992635	-45.214080	-11.860870	-3.812334	 37.924440	-2.927599	-2.450526	 36.184240	 0.754587	-1.378229	 35.397820	-2.634230	 0.914944	-2.657318	-1.302386	 3.677874	 3.026509	 2.013530	 94.366660	 85.829610	 170.442000	-41.499600	 62.465310	 69.658440	 9.926091	-4.754999	 47.098550	-4.885059	-45.290570	 18.039190	 6.437017	 35.671460	-0.771858	 2.830251	 35.756010	-7.813440	-2.350882	 35.473990	 5.254307
